<svg width="16" height="16" viewBox="0 0 16 16" fill="none" xmlns="http://www.w3.org/2000/svg">
<g clip-path="url(#clip0_102_69)">
<path fill-rule="evenodd" clip-rule="evenodd" d="M8.00016 4C5.86664 4 4.53354 4.97784 3.99992 6.93353C4.80003 5.95568 5.73339 5.58907 6.79999 5.83338C7.40854 5.97274 7.84371 6.37753 8.32497 6.82568C9.1094 7.55545 10.0174 8.4 12.0001 8.4C14.1333 8.4 15.4667 7.42216 16 5.46676C15.2002 6.4446 14.2668 6.81122 13.2002 6.56662C12.5914 6.42726 12.1562 6.02247 11.675 5.57461C10.8905 4.84426 9.98287 4 8.00016 4ZM3.99992 8.4C1.86671 8.4 0.533302 9.37784 0 11.3335C0.80011 10.3557 1.73347 9.98907 2.79976 10.2334C3.40862 10.3727 3.84379 10.7775 4.32504 11.2257C5.10948 11.9554 6.01713 12.8 8.00016 12.8C10.1334 12.8 11.4668 11.8224 12.0001 9.86676C11.2 10.8446 10.2666 11.2112 9.20001 10.9669C8.59146 10.8273 8.15629 10.4225 7.67503 9.97461C6.8906 9.24484 5.98264 8.4 3.99992 8.4Z" fill="#8B5CF6"/>
</g>
<defs>
<clipPath id="clip0_102_69">
<rect width="16" height="16" fill="white"/>
</clipPath>
</defs>
</svg>
