<svg width="248" height="31" viewBox="0 0 248 31" fill="none" xmlns="http://www.w3.org/2000/svg">
<path fill-rule="evenodd" clip-rule="evenodd" d="M25.517 0C18.712 0 14.46 3.382 12.758 10.146C15.31 6.764 18.287 5.496 21.689 6.341C23.63 6.823 25.018 8.223 26.553 9.773C29.055 12.297 31.951 15.218 38.275 15.218C45.079 15.218 49.332 11.836 51.033 5.073C48.482 8.455 45.505 9.723 42.103 8.877C40.161 8.395 38.773 6.995 37.238 5.446C34.736 2.92 31.841 0 25.517 0ZM12.758 15.218C5.954 15.218 1.701 18.6 0 25.364C2.552 21.982 5.529 20.714 8.93 21.559C10.872 22.041 12.26 23.441 13.795 24.991C16.297 27.515 19.192 30.436 25.517 30.436C32.321 30.436 36.574 27.055 38.275 20.291C35.723 23.673 32.746 24.941 29.344 24.096C27.403 23.613 26.015 22.213 24.48 20.664C21.978 18.14 19.082 15.218 12.758 15.218Z" fill="#8B5CF6"/>
<path d="M81.9034 13.3565L77.919 13.7912C77.8063 13.3887 77.6091 13.0104 77.3274 12.6563C77.0537 12.3021 76.6835 12.0163 76.2166 11.799C75.7498 11.5817 75.1783 11.473 74.5021 11.473C73.5926 11.473 72.8279 11.6702 72.2081 12.0646C71.5964 12.459 71.2945 12.9702 71.3026 13.598C71.2945 14.1373 71.4917 14.576 71.8942 14.9141C72.3047 15.2521 72.9808 15.5298 73.9226 15.7472L77.0859 16.4233C78.8407 16.8016 80.1446 17.4013 80.9979 18.2223C81.8591 19.0433 82.2938 20.1179 82.3018 21.446C82.2938 22.6132 81.9517 23.6435 81.2756 24.5369C80.6075 25.4223 79.6778 26.1146 78.4865 26.6136C77.2952 27.1127 75.9268 27.3622 74.3814 27.3622C72.1115 27.3622 70.2843 26.8873 68.8999 25.9375C67.5154 24.9796 66.6903 23.6475 66.4247 21.9411L70.6868 21.5305C70.88 22.3677 71.2905 22.9995 71.9183 23.4261C72.5462 23.8527 73.3632 24.0661 74.3693 24.0661C75.4077 24.0661 76.2408 23.8527 76.8686 23.4261C77.5045 22.9995 77.8224 22.4723 77.8224 21.8445C77.8224 21.3132 77.6172 20.8745 77.2067 20.5284C76.8042 20.1823 76.1764 19.9167 75.3232 19.7315L72.1598 19.0675C70.3809 18.6972 69.0649 18.0734 68.2116 17.196C67.3584 16.3106 66.9358 15.1918 66.9439 13.8395C66.9358 12.6965 67.2457 11.7064 67.8736 10.8693C68.5095 10.0241 69.3909 9.37216 70.5178 8.91335C71.6527 8.4465 72.9607 8.21307 74.4418 8.21307C76.6151 8.21307 78.3255 8.6759 79.5732 9.60156C80.8288 10.5272 81.6056 11.7789 81.9034 13.3565Z" fill="white"/>
<path d="M102.131 8.45455L95.5268 27H90.6973L84.0929 8.45455H88.7534L93.0155 22.2308H93.2086L97.4828 8.45455H102.131Z" fill="white"/>
<path d="M112.395 27.3622C110.536 27.3622 108.93 26.9759 107.578 26.2031C106.233 25.4223 105.199 24.3196 104.475 22.8949C103.75 21.4621 103.388 19.7758 103.388 17.8359C103.388 15.9283 103.75 14.254 104.475 12.8132C105.207 11.3643 106.229 10.2375 107.541 9.43253C108.853 8.61956 110.395 8.21307 112.166 8.21307C113.309 8.21307 114.387 8.3982 115.401 8.76847C116.424 9.13068 117.325 9.69413 118.106 10.4588C118.895 11.2235 119.515 12.1974 119.965 13.3807C120.416 14.5559 120.642 15.9564 120.642 17.5824V18.9226H105.441V15.9766H116.452C116.444 15.1394 116.263 14.3949 115.909 13.7429C115.554 13.0829 115.059 12.5637 114.424 12.1854C113.796 11.8071 113.063 11.6179 112.226 11.6179C111.333 11.6179 110.548 11.8352 109.872 12.2699C109.196 12.6965 108.668 13.2599 108.29 13.9602C107.92 14.6525 107.731 15.4131 107.723 16.2422V18.8139C107.723 19.8925 107.92 20.8182 108.314 21.5909C108.709 22.3556 109.26 22.9432 109.968 23.3537C110.677 23.7562 111.506 23.9574 112.455 23.9574C113.091 23.9574 113.667 23.8688 114.182 23.6918C114.697 23.5066 115.144 23.237 115.522 22.8828C115.901 22.5286 116.186 22.09 116.379 21.5668L120.46 22.0256C120.203 23.1042 119.712 24.0459 118.987 24.8509C118.271 25.6477 117.353 26.2675 116.235 26.7102C115.116 27.1449 113.836 27.3622 112.395 27.3622Z" fill="white"/>
<path d="M128.37 2.27273V27H123.999V2.27273H128.37Z" fill="white"/>
<path d="M141.785 8.45455V11.8352H131.124V8.45455H141.785ZM133.756 4.01136H138.127V21.4219C138.127 22.0095 138.215 22.4602 138.392 22.7741C138.577 23.08 138.819 23.2893 139.117 23.402C139.415 23.5147 139.745 23.571 140.107 23.571C140.38 23.571 140.63 23.5509 140.855 23.5107C141.089 23.4704 141.266 23.4342 141.387 23.402L142.123 26.8189C141.89 26.8994 141.556 26.9879 141.121 27.0845C140.694 27.1811 140.171 27.2375 139.551 27.2536C138.457 27.2857 137.471 27.1207 136.593 26.7585C135.716 26.3883 135.02 25.8168 134.505 25.044C133.997 24.2713 133.748 23.3054 133.756 22.1463V4.01136Z" fill="white"/>
<path d="M153.111 27.3622C151.252 27.3622 149.646 26.9759 148.294 26.2031C146.95 25.4223 145.915 24.3196 145.191 22.8949C144.467 21.4621 144.104 19.7758 144.104 17.8359C144.104 15.9283 144.467 14.254 145.191 12.8132C145.923 11.3643 146.946 10.2375 148.258 9.43253C149.57 8.61956 151.111 8.21307 152.882 8.21307C154.025 8.21307 155.104 8.3982 156.118 8.76847C157.14 9.13068 158.042 9.69413 158.822 10.4588C159.611 11.2235 160.231 12.1974 160.682 13.3807C161.133 14.5559 161.358 15.9564 161.358 17.5824V18.9226H146.157V15.9766H157.168C157.16 15.1394 156.979 14.3949 156.625 13.7429C156.271 13.0829 155.776 12.5637 155.14 12.1854C154.512 11.8071 153.78 11.6179 152.942 11.6179C152.049 11.6179 151.264 11.8352 150.588 12.2699C149.912 12.6965 149.385 13.2599 149.006 13.9602C148.636 14.6525 148.447 15.4131 148.439 16.2422V18.8139C148.439 19.8925 148.636 20.8182 149.03 21.5909C149.425 22.3556 149.976 22.9432 150.685 23.3537C151.393 23.7562 152.222 23.9574 153.172 23.9574C153.808 23.9574 154.383 23.8688 154.898 23.6918C155.414 23.5066 155.86 23.237 156.239 22.8828C156.617 22.5286 156.903 22.09 157.096 21.5668L161.177 22.0256C160.919 23.1042 160.428 24.0459 159.704 24.8509C158.987 25.6477 158.07 26.2675 156.951 26.7102C155.832 27.1449 154.552 27.3622 153.111 27.3622Z" fill="white"/>
<path d="M168.443 27L163.203 8.45455H167.659L170.918 21.4943H171.087L174.42 8.45455H178.827L182.159 21.4219H182.34L185.552 8.45455H190.019L184.767 27H180.215L176.738 14.4673H176.484L173.007 27H168.443Z" fill="white"/>
<path d="M192.731 27V8.45455H197.102V27H192.731ZM194.928 5.82244C194.236 5.82244 193.641 5.59304 193.141 5.13423C192.642 4.66738 192.393 4.10795 192.393 3.45597C192.393 2.79593 192.642 2.23651 193.141 1.7777C193.641 1.31084 194.236 1.07742 194.928 1.07742C195.629 1.07742 196.224 1.31084 196.715 1.7777C197.214 2.23651 197.464 2.79593 197.464 3.45597C197.464 4.10795 197.214 4.66738 196.715 5.13423C196.224 5.59304 195.629 5.82244 194.928 5.82244Z" fill="white"/>
<path d="M205.627 16.1335V27H201.256V8.45455H205.434V11.6058H205.651C206.078 10.5675 206.758 9.74242 207.692 9.13068C208.633 8.51894 209.796 8.21307 211.181 8.21307C212.461 8.21307 213.576 8.48674 214.525 9.03409C215.483 9.58144 216.224 10.3743 216.747 11.4126C217.278 12.451 217.54 13.7107 217.532 15.1918V27H213.161V15.8679C213.161 14.6283 212.839 13.6584 212.195 12.9581C211.559 12.2578 210.678 11.9077 209.551 11.9077C208.786 11.9077 208.106 12.0767 207.51 12.4148C206.923 12.7448 206.46 13.2237 206.122 13.8516C205.792 14.4794 205.627 15.2401 205.627 16.1335Z" fill="white"/>
<path d="M228.517 27.326C227.06 27.326 225.756 26.9517 224.605 26.2031C223.454 25.4545 222.545 24.3679 221.876 22.9432C221.208 21.5185 220.874 19.7879 220.874 17.7514C220.874 15.6908 221.212 13.9522 221.889 12.5355C222.573 11.1108 223.494 10.0362 224.653 9.31179C225.813 8.57931 227.104 8.21307 228.529 8.21307C229.616 8.21307 230.509 8.3982 231.21 8.76847C231.91 9.13068 232.465 9.56937 232.876 10.0845C233.286 10.5916 233.604 11.0705 233.83 11.5213H234.011V2.27273H238.393V27H234.095V24.0781H233.83C233.604 24.5289 233.278 25.0078 232.852 25.5149C232.425 26.014 231.862 26.4406 231.161 26.7947C230.461 27.1489 229.58 27.326 228.517 27.326ZM229.737 23.7401C230.662 23.7401 231.451 23.4905 232.103 22.9915C232.755 22.4844 233.25 21.7801 233.588 20.8786C233.926 19.977 234.095 18.9266 234.095 17.7273C234.095 16.5279 233.926 15.4856 233.588 14.6001C233.258 13.7147 232.767 13.0265 232.115 12.5355C231.471 12.0445 230.678 11.799 229.737 11.799C228.763 11.799 227.95 12.0526 227.298 12.5597C226.646 13.0668 226.155 13.767 225.825 14.6605C225.495 15.554 225.33 16.5762 225.33 17.7273C225.33 18.8864 225.495 19.9207 225.825 20.8303C226.163 21.7318 226.658 22.4441 227.31 22.9673C227.97 23.4825 228.779 23.7401 229.737 23.7401Z" fill="white"/>
</svg>
